<svg version="1.1" xmlns="http://www.w3.org/2000/svg" x="0px" y="0px"
	 width="800px" height="125px" viewBox="0 0 800 125">
<path fill="#7D7E81" d="M800,55.091V38.597h-23.466V15.303h-25.333l0.047,23.379l-14.671,0.766v15.643h14.701l0.092,46.249
	c0,7.37,2.125,13.093,6.376,17.174c4.251,4.08,10.173,6.122,17.77,6.122c2.04,0,4.531-0.144,7.481-0.426
	c2.946-0.284,5.892-0.679,8.842-1.19c2.946-0.509,5.44-1.105,7.48-1.785l-2.721-17.003h-10.882c-3.287,0-5.64-0.65-7.057-1.955
	c-1.418-1.302-2.126-3.485-2.126-6.547V55.091H800z"/>
<path fill="#7D7E81" d="M685.739,36.387c4.082,0,8.502,0.144,13.262,0.425c4.763,0.284,9.409,0.653,13.945,1.105
	c4.53,0.454,8.558,1.02,12.071,1.701l-1.701,15.643c-5.441-0.112-10.91-0.198-16.409-0.256c-5.499-0.055-10.854-0.084-16.067-0.084
	c-4.42-0.112-7.82-0.057-10.201,0.17c-2.38,0.229-4.054,0.765-5.018,1.615c-0.963,0.85-1.444,2.354-1.444,4.505
	c0,2.495,0.85,4.167,2.552,5.016c1.699,0.851,4.532,1.786,8.502,2.806l21.935,5.271c7.026,1.814,12.24,4.506,15.642,8.077
	c3.401,3.57,5.101,8.926,5.101,16.068c0,7.029-1.304,12.413-3.911,16.154c-2.609,3.74-6.743,6.319-12.411,7.737
	c-5.671,1.416-12.982,2.125-21.935,2.125c-3.516,0-8.729-0.17-15.643-0.511c-6.916-0.34-14.512-1.19-22.785-2.55l1.7-15.644
	c2.039,0.113,4.646,0.2,7.82,0.255c3.175,0.058,6.634,0.085,10.373,0.085c3.741,0,7.482,0,11.222,0
	c5.781,0,10.204-0.141,13.265-0.426c3.061-0.281,5.156-0.934,6.29-1.955c1.132-1.02,1.699-2.551,1.699-4.59
	c0-2.492-0.963-4.193-2.889-5.102c-1.93-0.906-4.989-1.871-9.183-2.891l-21.255-5.271c-5.33-1.472-9.464-3.341-12.411-5.611
	c-2.951-2.266-5.019-5.042-6.208-8.331c-1.19-3.287-1.785-7.199-1.785-11.733c0-5.781,1.162-10.399,3.487-13.858
	c2.322-3.456,6.122-5.978,11.391-7.566C670.012,37.181,677.011,36.387,685.739,36.387z"/>
<path fill="#7D7E81" d="M630.564,48.715c-2.552-4.479-6.267-7.652-11.14-9.523c-4.873-1.869-10.826-2.805-17.853-2.805
	c-4.196,0-8.955,0.2-14.283,0.595c-5.327,0.398-10.655,0.878-15.981,1.444c-5.331,0.569-10.033,1.25-14.115,2.042l2.383,16.663
	c6.801-0.452,13.431-0.821,19.894-1.106c6.461-0.281,11.844-0.424,16.153-0.424c5.21,0,8.756,0.909,10.627,2.72
	c1.871,1.815,2.806,4.706,2.806,8.672v3.91h-30.437c-7.937,0-14.172,1.871-18.705,5.612c-4.532,3.74-6.8,8.956-6.8,15.642v8.672
	c0,5.215,1.19,9.581,3.57,13.093c2.38,3.515,5.612,6.18,9.692,7.991c4.081,1.813,8.672,2.722,13.773,2.722
	c5.21,0,9.86-0.851,13.941-2.551c4.08-1.7,7.652-3.767,10.714-6.207c2.737-2.177,5.018-4.404,6.894-6.673l2.626,13.39h20.064V67.163
	C634.389,59.342,633.112,53.193,630.564,48.715z M609.055,98.212c-0.409,0.294-0.769,0.637-1.189,0.918
	c-3.401,2.268-6.833,4.024-10.289,5.271c-3.46,1.248-6.659,1.871-9.606,1.871c-3.515,0-6.066-0.765-7.652-2.295
	c-1.589-1.53-2.38-3.713-2.38-6.546v-4.081c0-2.492,0.65-4.478,1.956-5.952c1.302-1.472,3.485-2.211,6.546-2.211l22.615-0.102
	V98.212z"/>
<path fill="#7D7E81" d="M510.099,36.387c3.062,0,6.401,0.144,10.032,0.425c3.625,0.284,7.281,0.794,10.964,1.53
	c3.685,0.739,7.058,1.785,10.119,3.145L538.493,57.3c-4.537-0.112-8.869-0.226-13.008-0.34c-4.141-0.111-7.851-0.17-11.136-0.17
	c-5.104,0-9.127,0.681-12.071,2.041c-2.951,1.36-5.076,3.769-6.377,7.226c-1.306,3.46-1.957,8.247-1.957,14.369
	c0,6.235,0.651,11.11,1.957,14.622c1.301,3.516,3.426,5.951,6.377,7.312c2.944,1.36,6.968,2.041,12.071,2.041
	c1.81,0,4.134-0.055,6.971-0.17c2.832-0.112,5.893-0.254,9.18-0.425c3.288-0.17,6.518-0.481,9.692-0.936l2.382,15.984
	c-4.535,2.04-9.691,3.515-15.473,4.421c-5.781,0.905-11.507,1.36-17.174,1.36c-10.431,0-18.734-1.446-24.911-4.337
	c-6.18-2.89-10.627-7.566-13.347-14.027c-2.721-6.462-4.08-15.076-4.08-25.845c0-10.769,1.384-19.385,4.165-25.846
	c2.776-6.46,7.281-11.108,13.52-13.942C491.507,37.805,499.781,36.387,510.099,36.387z"/>
<path fill="#7D7E81" d="M433.329,104.314c-5.727,0.285-10.517,0.426-14.369,0.426c-5.33,0-9.495-0.736-12.498-2.211
	c-3.006-1.472-5.131-4.107-6.376-7.907c-0.595-1.807-1.038-4.005-1.348-6.546h29.914c9.747,0,16.605-1.897,20.574-5.695
	c3.968-3.797,5.895-9.549,5.783-17.258c0-9.523-3.091-16.691-9.269-21.51c-6.18-4.817-16.352-7.226-30.521-7.226
	c-10.317,0-18.647,1.418-24.997,4.251c-6.348,2.834-10.995,7.482-13.942,13.942c-2.947,6.461-4.419,15.192-4.419,26.186
	c0,10.09,1.448,18.364,4.336,24.824c2.89,6.46,7.594,11.251,14.114,14.367c6.515,3.118,15.102,4.677,25.759,4.677
	c4.08,0,8.331-0.199,12.753-0.596c4.42-0.399,8.727-1.049,12.921-1.955c4.193-0.906,7.936-2.152,11.223-3.741l-2.381-15.473
	C444.806,103.549,439.052,104.034,433.329,104.314z M399.748,63.082c1.019-3.512,2.829-5.893,5.44-7.141
	c2.604-1.245,6.233-1.871,10.882-1.871c5.212,0,8.926,0.765,11.137,2.296c2.209,1.53,3.371,4.28,3.487,8.247
	c0,2.949-0.543,5.244-1.616,6.887c-1.08,1.644-3.545,2.464-7.397,2.464h-23.377C398.486,69.412,398.965,65.773,399.748,63.082z"/>
<path fill="#7D7E81" d="M349.757,42.338c-3.969-3.967-9.75-5.952-17.343-5.952c-6.01,0-11.648,1.334-16.919,3.996
	c-4.525,2.286-9.115,5.615-13.766,9.865c-0.971-3.21-2.491-5.888-4.598-7.995c-3.911-3.911-9.608-5.866-17.088-5.866
	c-6.121,0-11.791,1.334-17.003,3.996c-4.867,2.485-9.888,6.181-15.05,10.985l-1.954-12.771h-20.064v83.997h25.165V64.596
	c2.352-1.455,4.426-2.643,6.206-3.555c2.437-1.246,4.591-2.125,6.462-2.635c1.87-0.511,3.767-0.766,5.695-0.766
	c3.173,0,5.527,0.739,7.057,2.21c1.53,1.476,2.294,4.025,2.294,7.652v55.09h24.145V64.936c2.458-1.509,4.618-2.756,6.462-3.725
	c2.38-1.245,4.477-2.151,6.291-2.721c1.813-0.566,3.741-0.85,5.781-0.85c3.401,0,5.781,0.766,7.142,2.296
	c1.36,1.53,2.041,4.055,2.041,7.566v55.09h24.993V59.681C355.707,52.088,353.725,46.307,349.757,42.338z"/>
<path fill="#7D7E81" d="M202.765,48.715c-2.551-4.479-6.266-7.652-11.138-9.523c-4.875-1.869-10.826-2.805-17.854-2.805
	c-4.194,0-8.955,0.2-14.281,0.595c-5.33,0.398-10.658,0.878-15.983,1.444c-5.331,0.569-10.033,1.25-14.113,2.042l2.38,16.663
	c6.801-0.452,13.433-0.821,19.894-1.106c6.462-0.281,11.843-0.424,16.154-0.424c5.212,0,8.756,0.909,10.627,2.72
	c1.869,1.815,2.805,4.706,2.805,8.672v3.91h-30.436c-7.936,0-14.172,1.871-18.704,5.612c-4.536,3.74-6.801,8.956-6.801,15.642v8.672
	c0,5.215,1.19,9.581,3.57,13.093c2.38,3.515,5.611,6.18,9.692,7.991c4.081,1.813,8.671,2.722,13.773,2.722
	c5.212,0,9.862-0.851,13.942-2.551c4.081-1.7,7.651-3.767,10.711-6.207c2.737-2.178,5.018-4.406,6.894-6.675l2.628,13.391h20.064
	V67.163C206.589,59.342,205.315,53.193,202.765,48.715z M181.255,98.213c-0.41,0.292-0.768,0.635-1.19,0.917
	c-3.401,2.268-6.83,4.024-10.287,5.271c-3.459,1.248-6.662,1.871-9.607,1.871c-3.515,0-6.065-0.765-7.652-2.295
	c-1.588-1.53-2.38-3.713-2.38-6.546v-4.081c0-2.492,0.652-4.478,1.956-5.952c1.302-1.472,3.485-2.211,6.546-2.211l22.615-0.102
	V98.213z"/>
<path fill="#7D7E81" d="M115.963,105.25h-6.292c-3.06,0-5.355-0.706-6.886-2.125c-1.53-1.416-2.295-3.597-2.295-6.546V3.23
	c-3.401-0.68-7.341-1.217-11.817-1.615c-4.479-0.396-9.097-0.707-13.858-0.936c-4.761-0.225-9.351-0.396-13.772-0.51
	C56.622,0.058,52.737,0,49.394,0c-3.344,0-5.865,0-7.566,0c-6.801,0-12.216,1.104-16.238,3.315c-4.025,2.21-6.915,5.355-8.672,9.438
	c-1.759,4.08-2.635,8.84-2.635,14.281v11.591L0,39.448v15.643h14.283v67.502h25.335V55.091h21.254V38.597H39.618v-8.332
	c0-4.76,0.82-8.077,2.466-9.946c1.641-1.871,4.561-2.748,8.756-2.636h24.655v85.187c0,6.801,2.095,12.132,6.291,15.984
	c4.192,3.853,9.974,5.781,17.344,5.781c1.7,0,3.852-0.144,6.46-0.426c2.607-0.284,5.128-0.679,7.566-1.19
	c2.437-0.509,4.278-1.105,5.526-1.785L115.963,105.25z"/>
</svg>
